<?xml version="1.0" encoding="UTF-8" standalone="no"?>
<svg
   xmlns:dc="http://purl.org/dc/elements/1.1/"
   xmlns:cc="http://creativecommons.org/ns#"
   xmlns:rdf="http://www.w3.org/1999/02/22-rdf-syntax-ns#"
   xmlns:svg="http://www.w3.org/2000/svg"
   xmlns="http://www.w3.org/2000/svg"
   xmlns:sodipodi="http://sodipodi.sourceforge.net/DTD/sodipodi-0.dtd"
   xmlns:inkscape="http://www.inkscape.org/namespaces/inkscape"
   viewBox="0 0 73 73"
   version="1.1"
   id="svg31"
   sodipodi:docname="IDS_cockpit.svg"
   inkscape:version="0.92.3 (2405546, 2018-03-11)">
  <metadata
     id="metadata35">
    <rdf:RDF>
      <cc:Work
         rdf:about="">
        <dc:format>image/svg+xml</dc:format>
        <dc:type
           rdf:resource="http://purl.org/dc/dcmitype/StillImage" />
      </cc:Work>
    </rdf:RDF>
  </metadata>
  <sodipodi:namedview
     pagecolor="#ffffff"
     bordercolor="#666666"
     borderopacity="1"
     objecttolerance="10"
     gridtolerance="10"
     guidetolerance="10"
     inkscape:pageopacity="0"
     inkscape:pageshadow="2"
     inkscape:window-width="1920"
     inkscape:window-height="1137"
     id="namedview33"
     showgrid="false"
     inkscape:zoom="3.2328767"
     inkscape:cx="36.5"
     inkscape:cy="36.5"
     inkscape:window-x="-8"
     inkscape:window-y="-8"
     inkscape:window-maximized="1"
     inkscape:current-layer="svg31" />
  <defs
     id="defs13">
    <style
       id="style2">.cls-1{fill:url(#Unbenannter_Verlauf_14);}.cls-2,.cls-3{fill:#008a96;}.cls-3{stroke:#008a96;stroke-miterlimit:10;stroke-width:0.5px;}</style>
    <linearGradient
       id="Unbenannter_Verlauf_14"
       x1="36.5"
       y1="72.28"
       x2="36.5"
       y2="-14.26"
       gradientUnits="userSpaceOnUse">
      <stop
         offset="0"
         stop-color="#e0e0e0"
         id="stop4" />
      <stop
         offset="0.17"
         stop-color="#e8e8e8"
         id="stop6" />
      <stop
         offset="0.63"
         stop-color="#f7f7f7"
         id="stop8" />
      <stop
         offset="1"
         stop-color="#fcfcfc"
         id="stop10" />
    </linearGradient>
  </defs>
  <title
     id="title15">Element 43</title>
  <g
     id="Ebene_2"
     data-name="Ebene 2">
    <g
       id="Ebene_1-2"
       data-name="Ebene 1">
      <rect
         class="cls-1"
         width="73"
         height="73"
         rx="12"
         id="rect17" />
      <rect
         class="cls-2"
         x="62.5"
         y="16.9"
         width="10.5"
         height="7.32"
         id="rect19" />
      <rect
         class="cls-2"
         x="62.5"
         y="32.84"
         width="10.5"
         height="7.32"
         id="rect21" />
      <rect
         class="cls-2"
         x="62.5"
         y="48.78"
         width="10.5"
         height="7.32"
         id="rect23" />
      <path
         class="cls-3"
         d="M33.5,58.2A21.36,21.36,0,1,1,54.85,36.85,21.38,21.38,0,0,1,33.5,58.2Zm0-41.63A20.28,20.28,0,1,0,53.78,36.85,20.3,20.3,0,0,0,33.5,16.57Z"
         id="path25" />
      <path
         class="cls-3"
         d="M33.51,53.61c-.39,0-.77,0-1.15,0h-.15l-.55-.06h-.12l-.43,0h0A16.76,16.76,0,0,1,16.78,36.86a16.53,16.53,0,0,1,3-9.64L20,27h0a17.41,17.41,0,0,1,13.51-6.88A16.69,16.69,0,0,1,48.6,29.44l0,.1h0A17.06,17.06,0,0,1,48,45.29,16.87,16.87,0,0,1,33.51,53.61ZM33,52.53a15.7,15.7,0,0,0,14.09-7.78h0a16.14,16.14,0,0,0,.55-14.83l-10-.07a8.21,8.21,0,0,1,3.78,4.82,7.69,7.69,0,0,1-.74,6.09,10.25,10.25,0,0,1-1.12,1.56,7.11,7.11,0,0,1-1.27,1.16l0,0-1.2,2C35.58,48,33.81,51.12,33,52.53ZM20,28.86a16.31,16.31,0,0,0-2.13,8,15.71,15.71,0,0,0,14,15.6l.14-.22,4.47-7.75a7.86,7.86,0,0,1-2.86.51,8,8,0,0,1-4.87-1.62,8.18,8.18,0,0,1-2.88-4.11l0-.07-.25-1.13Zm.69-1L25.51,36a8.13,8.13,0,0,1,8-7.16H47a15.69,15.69,0,0,0-13.48-7.64,15.49,15.49,0,0,0-7.59,2h0A16.94,16.94,0,0,0,20.67,27.9Zm13.07,2h-.61a7,7,0,0,0-6.6,7,6.55,6.55,0,0,0,.07,1L26.84,39a7,7,0,0,0,10.69,3.72l.07,0a6.67,6.67,0,0,0,1.12-1,8.54,8.54,0,0,0,1-1.4A6.61,6.61,0,0,0,40.36,35,7.18,7.18,0,0,0,37,30.75,6.72,6.72,0,0,0,35.18,30,6.92,6.92,0,0,0,33.74,29.87Z"
         id="path27" />
    </g>
  </g>
</svg>
